mtllib tetrahedron.mtl
o Solid
v 0.000000 -1.000000 0.000000
v 0.942809 0.333333 0.000000
v -0.471405 0.333333 0.816497
v -0.471404 0.333333 -0.816497
vn 0.4714 -0.3333 0.8165
vn -0.9428 -0.3333 -0.0000
vn 0.4714 -0.3333 -0.8165
vn -0.0000 1.0000 -0.0000
vt 0.865168 0.498153
vt 0.435355 0.250000
vt 0.865168 0.001847
vt 0.431660 0.250000
vt 0.001848 0.498153
vt 0.001847 0.001847
vt 0.435355 0.998152
vt 0.435355 0.501848
vt 0.865168 0.750000
vt 0.431660 0.501847
vt 0.431660 0.998153
vt 0.001847 0.750000
s 0
usemtl tetrahedron_texture
f 2/1/1 3/2/1 1/3/1
f 3/4/2 4/5/2 1/6/2
f 4/7/3 2/8/3 1/9/3
f 4/10/4 3/11/4 2/12/4
