mtllib Octahedron.mtl
o Solid
v 0.000000 -1.000000 0.000000
v 0.000000 0.000000 1.000000
v 0.000000 1.000000 0.000000
v 0.000000 0.000000 -1.000000
v -1.000000 0.000000 0.000000
v 1.000000 0.000000 0.000000
vn -0.5774 -0.5774 0.5774
vn 0.5774 -0.5774 0.5774
vn -0.5774 -0.5774 -0.5774
vn 0.5774 -0.5774 -0.5774
vn -0.5774 0.5774 0.5774
vn 0.5774 0.5774 0.5774
vn -0.5774 0.5774 -0.5774
vn 0.5774 0.5774 -0.5774
s 0
usemtl Red
f 1//1 2//1 5//1
f 1//2 6//2 2//2
f 1//3 5//3 4//3
f 1//4 4//4 6//4
f 2//5 3//5 5//5
f 2//6 6//6 3//6
f 3//7 4//7 5//7
f 3//8 6//8 4//8
