mtllib dodecahedron.mtl
o Solid
v 0.187594 0.794659 -0.577343
v 0.607058 0.794658 0.000000
v -0.491120 0.794658 -0.356819
v -0.491120 0.794658 0.356819
v 0.187594 0.794659 0.577343
v 0.982247 0.187594 0.000000
v 0.303532 0.187596 -0.934171
v -0.794656 0.187595 -0.577347
v -0.794656 0.187595 0.577347
v 0.303532 0.187596 0.934171
v 0.794656 -0.187595 -0.577347
v -0.303532 -0.187596 -0.934171
v -0.982247 -0.187594 0.000000
v -0.303532 -0.187596 0.934171
v 0.794656 -0.187595 0.577347
v 0.491120 -0.794658 -0.356819
v -0.187594 -0.794659 -0.577343
v -0.607058 -0.794658 0.000000
v -0.187594 -0.794659 0.577343
v 0.491120 -0.794658 0.356819
vn -0.0000 1.0000 -0.0000
vn 0.7236 0.4472 -0.5257
vn -0.2764 0.4472 -0.8507
vn -0.8944 0.4472 -0.0000
vn -0.2764 0.4472 0.8506
vn 0.7236 0.4472 0.5257
vn 0.2764 -0.4472 -0.8507
vn -0.7236 -0.4472 -0.5257
vn -0.7236 -0.4472 0.5257
vn 0.2764 -0.4472 0.8506
vn 0.8944 -0.4472 -0.0000
vn -0.0000 -1.0000 -0.0000
vt 0.246998 0.131278
vt 0.153800 0.003002
vt 0.003002 0.051999
vt 0.003002 0.210557
vt 0.153800 0.259554
vt 0.496998 0.131278
vt 0.403800 0.003002
vt 0.253002 0.051999
vt 0.253002 0.210557
vt 0.403800 0.259554
vt 0.246998 0.393835
vt 0.153800 0.265559
vt 0.003002 0.314556
vt 0.003002 0.473114
vt 0.153800 0.522111
vt 0.496998 0.393835
vt 0.403800 0.265559
vt 0.253002 0.314556
vt 0.253002 0.473114
vt 0.403800 0.522111
vt 0.746998 0.131278
vt 0.653800 0.003002
vt 0.503002 0.051999
vt 0.503002 0.210557
vt 0.653800 0.259554
vt 0.746998 0.393835
vt 0.653800 0.265559
vt 0.503002 0.314556
vt 0.503002 0.473114
vt 0.653800 0.522111
vt 0.246998 0.656391
vt 0.153800 0.528115
vt 0.003002 0.577112
vt 0.003002 0.735670
vt 0.153800 0.784667
vt 0.496998 0.656391
vt 0.403800 0.528115
vt 0.253002 0.577112
vt 0.253002 0.735670
vt 0.403800 0.784667
vt 0.746998 0.656391
vt 0.653800 0.528115
vt 0.503002 0.577112
vt 0.503002 0.735670
vt 0.653800 0.784667
vt 0.996998 0.131278
vt 0.903800 0.003002
vt 0.753002 0.051999
vt 0.753002 0.210557
vt 0.903800 0.259554
vt 0.996998 0.393835
vt 0.903800 0.265559
vt 0.753002 0.314556
vt 0.753002 0.473114
vt 0.903800 0.522111
vt 0.996998 0.656391
vt 0.903800 0.528115
vt 0.753002 0.577112
vt 0.753002 0.735670
vt 0.903800 0.784667
s 0
usemtl dodecahedron_texture
f 1/1/1 3/2/1 4/3/1 5/4/1 2/5/1
f 1/6/2 2/7/2 6/8/2 11/9/2 7/10/2
f 1/11/3 7/12/3 12/13/3 8/14/3 3/15/3
f 3/16/4 8/17/4 13/18/4 9/19/4 4/20/4
f 4/21/5 9/22/5 14/23/5 10/24/5 5/25/5
f 2/26/6 5/27/6 10/28/6 15/29/6 6/30/6
f 7/31/7 11/32/7 16/33/7 17/34/7 12/35/7
f 8/36/8 12/37/8 17/38/8 18/39/8 13/40/8
f 9/41/9 13/42/9 18/43/9 19/44/9 14/45/9
f 10/46/10 14/47/10 19/48/10 20/49/10 15/50/10
f 6/51/11 15/52/11 20/53/11 16/54/11 11/55/11
f 16/56/12 20/57/12 19/58/12 18/59/12 17/60/12
