mtllib meltdown_box.mtl
o OuterBox
v -2.000000 0.000000 -2.000000
v 2.000000 0.000000 -2.000000
v -2.000000 0.000000 2.000000
v 2.000000 0.000000 2.000000
v -2.000000 -4.000000 -2.000000
v 2.000000 -4.000000 -2.000000
v -2.000000 -4.000000 2.000000
v 2.000000 -4.000000 2.000000
vn -0.0000 -1.0000 -0.0000
vn -0.0000 -0.0000 -1.0000
vn -1.0000 -0.0000 -0.0000
vn 1.0000 -0.0000 -0.0000
vn -0.0000 1.0000 -0.0000
vt 0.000000 0.000000
vt 1.000000 0.000000
vt 1.000000 1.000000
vt 0.000000 1.000000
s 0
usemtl red_wall
f 1/1/4 3/4/4 7/4/4 5/1/4
usemtl white_surface
f 1/1/1 2/2/1 4/3/1 3/4/1
f 3/4/2 4/3/2 8/3/2 7/4/2
f 8/3/5 6/2/5 5/1/5 7/4/5
usemtl green_wall
f 4/3/3 2/2/3 6/2/3 8/3/3
o Light
v -0.500000 -3.990000 -0.500000
v 0.500000 -3.990000 -0.500000
v -0.500000 -3.990000 0.500000
v 0.500000 -3.990000 0.500000
vn -0.0000 -1.0000 -0.0000
vt 0.000000 0.000000
vt 1.000000 0.000000
vt 1.000000 1.000000
vt 0.000000 1.000000
s 0
usemtl light
f 9/5/6 10/6/6 12/7/6 11/8/6
o Octahedron
v 0.850000 -1.850000 0.450000
v 0.850000 -1.000000 1.300000
v 0.850000 -0.150000 0.450000
v 0.850000 -1.000000 -0.400000
v 0.000000 -1.000000 0.450000
v 1.700000 -1.000000 0.450000
vn -0.5774 -0.5774 0.5774
vn 0.5774 -0.5774 0.5774
vn -0.5774 -0.5774 -0.5774
vn 0.5774 -0.5774 -0.5774
vn -0.5774 0.5774 0.5774
vn 0.5774 0.5774 0.5774
vn -0.5774 0.5774 -0.5774
vn 0.5774 0.5774 -0.5774
vt 0.286885 0.166667
vt 0.002445 0.330888
vt 0.002445 0.002445
vt 0.576216 0.166667
vt 0.291776 0.330888
vt 0.291776 0.002445
vt 0.286885 0.500000
vt 0.002445 0.664221
vt 0.002445 0.335779
vt 0.576216 0.500000
vt 0.291776 0.664221
vt 0.291776 0.335779
vt 0.581106 0.002445
vt 0.865546 0.166667
vt 0.581106 0.330888
vt 0.581106 0.664221
vt 0.581106 0.335779
vt 0.865546 0.500000
vt 0.286885 0.833333
vt 0.002445 0.997555
vt 0.002445 0.669112
vt 0.576216 0.833333
vt 0.291776 0.997555
vt 0.291776 0.669112
s 1
usemtl mirror
f 13/9/7 14/10/7 17/11/7
f 13/12/8 18/13/8 14/14/8
f 13/15/9 17/16/9 16/17/9
f 13/18/10 16/19/10 18/20/10
f 14/21/11 15/22/11 17/23/11
f 14/24/12 18/25/12 15/26/12
f 15/27/13 16/28/13 17/29/13
f 15/30/14 18/31/14 16/32/14
o WhiteBox
v -1.212142 0.000000 -1.011636
v -1.212142 -1.900000 -1.011636
v -1.461636 0.000000 0.162142
v -1.461636 -2.000000 0.162142
v -0.038364 0.000000 -0.762142
v -0.038364 -1.900000 -0.762142
v -0.287858 0.000000 0.411636
v -0.287858 -2.000000 0.411636
vn -0.9781 -0.0000 -0.2079
vn -0.2079 -0.0000 0.9781
vn 0.9781 -0.0000 0.2079
vn 0.2079 -0.0000 -0.9781
vn -0.0000 1.0000 -0.0000
vn 0.0173 -0.9965 -0.0812
vt 0.375000 0.000000
vt 0.625000 0.000000
vt 0.625000 0.250000
vt 0.375000 0.250000
vt 0.625000 0.500000
vt 0.375000 0.500000
vt 0.625000 0.750000
vt 0.375000 0.750000
vt 0.625000 1.000000
vt 0.375000 1.000000
vt 0.125000 0.500000
vt 0.125000 0.750000
vt 0.875000 0.500000
vt 0.875000 0.750000
s 0
usemtl white_surface
f 19/33/15 20/34/15 22/35/15 21/36/15
f 21/36/16 22/35/16 26/37/16 25/38/16
f 25/38/17 26/37/17 24/39/17 23/40/17
f 23/40/18 24/39/18 20/41/18 19/42/18
f 21/43/19 25/38/19 23/40/19 19/44/19
f 26/37/20 22/45/20 20/46/20 24/39/20
