mtllib ground.mtl
o Ground
v -5.000000 1.000000 -5.000000
v 5.000000 1.000000 -5.000000
v -5.000000 1.000000 5.000000
v 5.000000 1.000000 5.000000
v -5.000000 1.000000 0.000000
v 0.000000 1.000000 -5.000000
v 5.000000 1.000000 0.000000
v 0.000000 1.000000 5.000000
v 0.000000 1.000000 0.000000
v -5.000000 1.000000 -2.500000
v 2.500000 1.000000 -5.000000
v 5.000000 1.000000 2.500000
v -2.500000 1.000000 5.000000
v -5.000000 1.000000 2.500000
v -2.500000 1.000000 -5.000000
v 5.000000 1.000000 -2.500000
v 2.500000 1.000000 5.000000
v 0.000000 1.500000 2.500000
v 0.000000 1.500000 -2.500000
v -2.500000 1.500000 0.000000
v 2.500000 1.500000 0.000000
v 2.500000 1.500000 -2.500000
v -2.500000 1.500000 -2.500000
v -2.500000 1.500000 2.500000
v 2.500000 1.500000 2.500000
v -5.000000 1.000000 -3.750000
v 3.750000 1.000000 -5.000000
v 5.000000 1.000000 3.750000
v -3.750000 1.000000 5.000000
v -5.000000 1.000000 1.250000
v -1.250000 1.000000 -5.000000
v 5.000000 1.000000 -1.250000
v 1.250000 1.000000 5.000000
v 0.000000 1.500000 3.750000
v 0.000000 1.000000 -1.250000
v -3.750000 1.500000 0.000000
v 1.250000 1.000000 0.000000
v -5.000000 1.000000 -1.250000
v 1.250000 1.000000 -5.000000
v 5.000000 1.000000 1.250000
v -1.250000 1.000000 5.000000
v -5.000000 1.000000 3.750000
v -3.750000 1.000000 -5.000000
v 5.000000 1.000000 -3.750000
v 3.750000 1.000000 5.000000
v 0.000000 1.000000 1.250000
v 0.000000 1.500000 -3.750000
v -1.250000 1.000000 0.000000
v 3.750000 1.500000 0.000000
v 2.500000 1.500000 -1.250000
v 2.500000 1.500000 -3.750000
v 1.250000 1.500000 -2.500000
v 3.750000 1.500000 -2.500000
v -2.500000 1.500000 -1.250000
v -2.500000 1.500000 -3.750000
v -3.750000 1.500000 -2.500000
v -1.250000 1.500000 -2.500000
v -2.500000 1.500000 3.750000
v -2.500000 1.500000 1.250000
v -3.750000 1.500000 2.500000
v -1.250000 1.500000 2.500000
v 2.500000 1.500000 3.750000
v 2.500000 1.500000 1.250000
v 1.250000 1.500000 2.500000
v 3.750000 1.500000 2.500000
v 3.750000 1.500000 1.250000
v 1.250000 1.000000 1.250000
v 1.250000 1.500000 3.750000
v -1.250000 1.000000 1.250000
v -3.750000 1.500000 1.250000
v -3.750000 1.500000 3.750000
v -1.250000 1.500000 -3.750000
v -3.750000 1.500000 -3.750000
v -3.750000 1.500000 -1.250000
v 3.750000 1.500000 -3.750000
v 1.250000 1.500000 -3.750000
v 1.250000 1.000000 -1.250000
v 3.750000 1.500000 -1.250000
v -1.250000 1.000000 -1.250000
v -1.250000 1.500000 3.750000
v 3.750000 1.500000 3.750000
vn -0.0000 -0.9285 -0.3714
vn -0.0000 -1.0000 -0.0000
vn -0.3714 -0.9285 -0.0000
vn 0.3714 -0.9285 -0.0000
vn -0.0000 -0.9285 0.3714
vn -0.3482 -0.8704 -0.3482
vn 0.3482 -0.8704 0.3482
vn -0.3482 -0.8704 0.3482
vn 0.3482 -0.8704 -0.3482
vt 0.875000 1.000000
vt 0.875000 0.875000
vt 0.000000 0.000000
vt 0.375000 0.875000
vt 0.500000 0.875000
vt 0.500000 1.000000
vt 0.375000 1.000000
vt 0.375000 0.375000
vt 0.500000 0.375000
vt 0.500000 0.500000
vt 0.375000 0.500000
vt 0.875000 0.375000
vt 1.000000 0.375000
vt 1.000000 0.500000
vt 0.875000 0.500000
vt 0.625000 0.375000
vt 0.750000 0.375000
vt 0.750000 0.500000
vt 0.625000 0.500000
vt 0.625000 0.125000
vt 0.750000 0.125000
vt 0.750000 0.250000
vt 0.625000 0.250000
vt 0.875000 0.125000
vt 1.000000 0.125000
vt 1.000000 0.250000
vt 0.875000 0.250000
vt 0.125000 0.375000
vt 0.250000 0.375000
vt 0.250000 0.500000
vt 0.125000 0.500000
vt 0.125000 0.125000
vt 0.250000 0.125000
vt 0.250000 0.250000
vt 0.125000 0.250000
vt 0.375000 0.125000
vt 0.500000 0.125000
vt 0.500000 0.250000
vt 0.375000 0.250000
vt 0.125000 0.875000
vt 0.250000 0.875000
vt 0.250000 1.000000
vt 0.125000 1.000000
vt 0.125000 0.625000
vt 0.250000 0.625000
vt 0.250000 0.750000
vt 0.125000 0.750000
vt 0.375000 0.625000
vt 0.500000 0.625000
vt 0.500000 0.750000
vt 0.375000 0.750000
vt 0.625000 0.875000
vt 0.750000 0.875000
vt 0.750000 1.000000
vt 0.625000 1.000000
vt 0.875000 0.625000
vt 1.000000 0.625000
vt 1.000000 0.750000
vt 0.875000 0.750000
vt 0.750000 0.625000
vt 0.750000 0.750000
vt 0.625000 0.625000
vt 0.625000 0.750000
vt 0.000000 0.125000
vt 0.000000 0.625000
vt 0.000000 0.750000
vt 0.000000 0.500000
vt 0.000000 0.875000
vt 0.250000 0.000000
vt 0.375000 0.000000
vt 0.500000 0.000000
vt 0.000000 0.250000
vt 1.000000 0.875000
vt 0.125000 0.000000
vt 0.000000 0.375000
vt 0.750000 0.000000
vt 0.875000 0.000000
vt 0.625000 0.000000
s 0
usemtl GroundMaterial
f 45/1/1 81/2/1 4/3/1
f 80/4/1 34/5/1 8/6/1 41/7/1
f 79/8/2 35/9/2 9/10/2 48/11/2
f 78/12/3 32/13/3 7/14/3 49/15/3
f 77/16/4 50/17/4 21/18/4 37/19/4
f 76/20/2 51/21/2 22/22/2 52/23/2
f 75/24/3 44/25/3 16/26/3 53/27/3
f 74/28/2 54/29/2 20/30/2 36/31/2
f 73/32/2 55/33/2 23/34/2 56/35/2
f 72/36/2 47/37/2 19/38/2 57/39/2
f 71/40/1 58/41/1 13/42/1 29/43/1
f 70/44/2 59/45/2 24/46/2 60/47/2
f 69/48/5 46/49/5 18/50/5 61/51/5
f 68/52/1 62/53/1 17/54/1 33/55/1
f 66/56/3 40/57/3 12/58/3 65/59/3
f 63/60/2 66/56/2 65/59/2 25/61/2
f 21/18/2 49/15/2 66/56/2 63/60/2
f 49/15/3 7/14/3 40/57/3 66/56/3
f 46/49/5 67/62/5 64/63/5 18/50/5
f 9/10/2 37/19/2 67/62/2 46/49/2
f 37/19/4 21/18/4 63/60/4 67/62/4
f 34/5/1 68/52/1 33/55/1 8/6/1
f 18/50/2 64/63/2 68/52/2 34/5/2
f 64/63/2 25/61/2 62/53/2 68/52/2
f 26/64/4 1/3/4 73/32/4
f 20/30/3 48/11/3 69/48/3 59/45/3
f 48/11/2 9/10/2 46/49/2 69/48/2
f 30/65/4 70/44/4 60/47/4 14/66/4
f 5/67/4 36/31/4 70/44/4 30/65/4
f 36/31/2 20/30/2 59/45/2 70/44/2
f 14/66/4 60/47/4 71/40/4 42/68/4
f 60/47/2 24/46/2 58/41/2 71/40/2
f 55/33/2 72/36/2 57/39/2 23/34/2
f 15/69/5 31/70/5 72/36/5 55/33/5
f 31/70/5 6/71/5 47/37/5 72/36/5
f 26/64/4 73/32/4 56/35/4 10/72/4
f 28/73/3 4/3/3 81/2/3
f 43/74/5 15/69/5 55/33/5 73/32/5
f 38/75/4 74/28/4 36/31/4 5/67/4
f 10/72/4 56/35/4 74/28/4 38/75/4
f 56/35/2 23/34/2 54/29/2 74/28/2
f 51/21/2 75/24/2 53/27/2 22/22/2
f 11/76/5 27/77/5 75/24/5 51/21/5
f 47/37/2 76/20/2 52/23/2 19/38/2
f 6/71/5 39/78/5 76/20/5 47/37/5
f 39/78/5 11/76/5 51/21/5 76/20/5
f 35/9/2 77/16/2 37/19/2 9/10/2
f 19/38/1 52/23/1 77/16/1 35/9/1
f 43/74/5 73/32/5 1/3/5
f 50/17/2 78/12/2 49/15/2 21/18/2
f 22/22/2 53/27/2 78/12/2 50/17/2
f 53/27/3 16/26/3 32/13/3 78/12/3
f 54/29/3 79/8/3 48/11/3 20/30/3
f 57/39/1 19/38/1 35/9/1 79/8/1
f 58/41/1 80/4/1 41/7/1 13/42/1
f 24/46/2 61/51/2 80/4/2 58/41/2
f 61/51/2 18/50/2 34/5/2 80/4/2
f 62/53/1 81/2/1 45/1/1 17/54/1
f 25/61/2 65/59/2 81/2/2 62/53/2
f 65/59/3 12/58/3 28/73/3 81/2/3
f 64/63/2 63/60/2 25/61/2
f 57/39/2 54/29/2 23/34/2
f 57/39/6 79/8/6 54/29/6
f 67/62/7 63/60/7 64/63/7
f 27/77/5 2/3/5 75/24/5
f 44/25/3 75/24/3 2/3/3
f 71/40/4 3/3/4 42/68/4
f 71/40/1 29/43/1 3/3/1
f 61/51/8 59/45/8 69/48/8
f 24/46/2 59/45/2 61/51/2
f 50/17/2 52/23/2 22/22/2
f 52/23/9 50/17/9 77/16/9
